<?xml version="1.0" encoding="utf-8"?>
<!-- Generator: Adobe Illustrator 27.5.0, SVG Export Plug-In . SVG Version: 6.00 Build 0)  -->
<svg version="1.1" id="Layer_1" xmlns="http://www.w3.org/2000/svg" xmlns:xlink="http://www.w3.org/1999/xlink" x="0px" y="0px"
	 viewBox="0 0 1475 601" style="enable-background:new 0 0 1475 601;" xml:space="preserve">
<style type="text/css">
	.st0{fill:#FFFFFF;}
	.st1{fill:#B17B16;}
</style>
<g>
	<g>
		<g>
			<g>
				<polygon class="st0" points="853.19,-901.47 1151.18,-1064.93 1151.18,-947.76 853.19,-779.96 				"/>
			</g>
			<g>
				<polygon class="st0" points="1151.18,-830.59 1151.18,-716.31 853.19,-552.86 853.19,-671.47 				"/>
			</g>
			<g>
				<polygon class="st0" points="1151.18,-552.86 1447.72,-552.86 1447.72,-779.96 1151.18,-947.76 1151.18,-830.59 
					1349.35,-717.76 1350.8,-577.45 1151.18,-576 				"/>
			</g>
		</g>
	</g>
	<g>
		<path class="st0" d="M1537.79-597.35c2.49,4.26,8.43,10.24,17.84,17.93c9.41,7.69,18.02,13.2,25.83,16.51l-8.34,12.43
			c-10.77-4.5-23.37-20.06-37.81-46.68c-1.78,0.12-3.55,0.18-5.33,0.18h-10.3c-1.18,0-1.78,0.59-1.78,1.77v45.09h-13.31v-117.69
			h35.15c6.63,0,12.43,1.01,17.4,3.02c4.97,2.01,8.84,4.68,11.63,7.99c2.78,3.31,4.85,6.83,6.21,10.56
			c1.36,3.73,2.04,7.6,2.04,11.63c0,10.65-3.43,19.23-10.3,25.74C1559.86-602.38,1550.22-598.53,1537.79-597.35z M1517.91-601.08
			c0,0.59,0.18,1.06,0.53,1.42c0.35,0.35,0.77,0.53,1.24,0.53h10.3c10.65,0,18.82-2.72,24.5-8.17c5.68-5.44,8.52-13.25,8.52-23.43
			c0-4.38-0.56-8.55-1.69-12.51c-1.13-3.96-2.81-7.66-5.06-11.09c-2.25-3.43-5.36-6.15-9.32-8.16c-3.97-2.01-8.61-3.02-13.93-3.02
			h-13.31c-1.18,0-1.78,0.59-1.78,1.78V-601.08z"/>
		<path class="st0" d="M1660.45-572.68l1.06,1.42c-11.36,14.79-23.96,22.19-37.81,22.19c-6.27,0-12.22-1.45-17.84-4.35
			c-5.62-2.9-10.33-7.39-14.11-13.49c-3.79-6.09-5.68-13.16-5.68-21.21c0-12.31,3.99-22.6,11.98-30.89
			c7.99-8.28,17.96-12.43,29.91-12.43c10.06,0,17.87,2.81,23.43,8.43c5.56,5.62,8.46,12.16,8.7,19.61l-62.48-0.35
			c-0.59,2.25-0.89,4.85-0.89,7.81c0,11.12,3.22,20.15,9.67,27.07c6.45,6.92,14.88,10.38,25.29,10.38
			C1642.58-558.48,1652.17-563.21,1660.45-572.68z M1622.29-629.3c-6.27,0-11.57,2.1-15.89,6.3c-4.32,4.2-7.19,10.03-8.61,17.48
			l49.7,0.36c-0.71-6.51-3.34-12.16-7.9-16.95c-4.56-4.79-10.21-7.19-16.95-7.19H1622.29z"/>
		<path class="st0" d="M1709.62-631.43c9.35,0,16.83,2.49,22.45,7.46c5.62,4.97,8.43,12.01,8.43,21.12v52.54h-11.71v-22.37
			c-0.36,0.59-0.83,1.42-1.42,2.49c-0.59,1.06-1.98,2.9-4.17,5.5c-2.19,2.6-4.5,4.91-6.92,6.92c-2.43,2.01-5.56,3.85-9.41,5.5
			c-3.85,1.66-7.84,2.49-11.98,2.49c-7.22,0-13.43-2.04-18.64-6.12c-5.21-4.08-7.81-10.21-7.81-18.37c0-4.02,0.86-7.66,2.57-10.92
			c1.71-3.25,3.79-5.89,6.21-7.9c2.42-2.01,5.59-3.76,9.5-5.24c3.91-1.48,7.42-2.54,10.56-3.2c3.13-0.65,6.95-1.15,11.45-1.51
			c4.5-0.35,7.84-0.56,10.03-0.62c2.19-0.06,4.94-0.09,8.25-0.09c0.83,0,1.42,0,1.78,0c0-8.4-1.81-14.85-5.41-19.35
			c-3.61-4.5-8.08-6.75-13.4-6.75c-2.84,0-5.68,0.71-8.52,2.13c-2.84,1.42-5.32,3.14-7.46,5.15c-2.13,2.01-4.02,4.02-5.68,6.04
			c-1.66,2.01-2.96,3.73-3.91,5.15l-1.24,2.13l-4.97-8.17c2.72-3.31,6.98-6.48,12.78-9.5
			C1696.78-629.92,1702.99-631.43,1709.62-631.43z M1728.79-575.69v-26.27c-3.91,0-7.54,0.12-10.92,0.35
			c-3.37,0.24-7.04,0.62-11.01,1.15c-3.97,0.53-7.43,1.42-10.38,2.66c-2.96,1.24-5.74,2.75-8.34,4.53c-2.6,1.78-4.59,4.05-5.95,6.83
			c-1.36,2.78-2.04,6.01-2.04,9.67c0,6.04,1.74,11.16,5.24,15.35c3.49,4.2,8.49,6.3,15,6.3c3.43,0,6.75-0.68,9.94-2.04
			c3.2-1.36,5.86-3.08,7.99-5.15c2.13-2.07,4.02-4.11,5.68-6.12c1.66-2.01,2.84-3.73,3.55-5.15L1728.79-575.69z"/>
		<path class="st0" d="M1755.59-668l12.07,7.81v109.88h-12.07V-668z"/>
		<path class="st0" d="M1864.22-665.34c-1.06,0-1.6,0.53-1.6,1.6v48.64c0,0.47,0.18,0.92,0.53,1.33c0.36,0.42,0.83,0.62,1.42,0.62
			h37.45v2.49h-37.45c-0.59,0-1.06,0.18-1.42,0.53c-0.35,0.35-0.53,0.83-0.53,1.42v54.49c0,1.06,0.53,1.6,1.6,1.6h11.89
			c11.83,0,27.57-1.89,47.22-5.68v8.17h-73.84v-117.69h73.84v8.17c-19.64-3.79-35.38-5.68-47.22-5.68H1864.22z"/>
		<path class="st0" d="M1963.62-597.17c3.08,0.95,5.41,1.72,7.01,2.31c1.6,0.59,3.67,1.54,6.21,2.84c2.54,1.3,4.47,2.66,5.77,4.08
			c1.3,1.42,2.45,3.26,3.46,5.5c1,2.25,1.51,4.73,1.51,7.46c0,6.63-2.57,12.34-7.72,17.13c-5.15,4.79-12.4,7.19-21.74,7.19
			c-4.85,0-9.56-0.65-14.11-1.95c-4.56-1.3-7.84-2.6-9.85-3.91l-3.2-2.13l5.15-8.7c0.71,0.59,1.78,1.42,3.19,2.49
			c1.42,1.06,4.29,2.57,8.61,4.53c4.32,1.95,8.73,3.23,13.22,3.82c5.8,0.71,11.01-0.18,15.62-2.66c4.62-2.49,6.92-5.86,6.92-10.12
			c0-1.66-0.47-3.19-1.42-4.61c-0.95-1.42-2.4-2.69-4.35-3.82c-1.95-1.12-3.64-2.01-5.06-2.66c-1.42-0.65-3.49-1.51-6.21-2.57
			c-0.71-0.24-1.18-0.41-1.42-0.53c-0.47-0.24-4.08-1.45-10.83-3.64c-6.75-2.19-11.72-4.17-14.91-5.95
			c-4.26-2.25-7.49-5.41-9.67-9.5c-2.19-4.08-2.16-9.2,0.09-15.35c3.2-8.99,11.36-13.49,24.5-13.49c10.41,0,19.35,3.79,26.8,11.36
			l1.24,1.42l-5.68,10.65c-0.35-0.36-0.77-0.92-1.24-1.69c-0.47-0.77-1.51-2.16-3.11-4.17c-1.6-2.01-3.2-3.84-4.79-5.5
			c-1.6-1.66-3.52-3.28-5.77-4.88c-2.25-1.6-4.44-2.63-6.57-3.11c-4.02-1.18-7.81-1.33-11.36-0.44c-3.55,0.89-5.98,2.81-7.28,5.77
			c-1.07,2.13-1.33,4.2-0.8,6.21c0.53,2.01,1.33,3.76,2.4,5.24c1.06,1.48,2.54,2.87,4.44,4.17c1.89,1.3,3.58,2.34,5.06,3.11
			c1.48,0.77,2.93,1.39,4.35,1.86L1963.62-597.17z"/>
		<path class="st0" d="M2013.68-629.66v69.41c0,0.24,0,0.71,0,1.42s0,1.24,0,1.6c0,0.35,0.03,0.83,0.09,1.42
			c0.06,0.59,0.15,1.07,0.27,1.42c0.12,0.35,0.29,0.71,0.53,1.06c0.24,0.36,0.53,0.59,0.89,0.71c0.35,0.12,0.77,0.18,1.24,0.18v2.13
			c-10.06,0-15.09-4.32-15.09-12.96v-66.39h-11.89v-1.77h11.89v-21.12l12.07,7.81v13.31h11.89v1.77H2013.68z"/>
		<path class="st0" d="M2068.53-631.43c9.35,0,16.83,2.49,22.45,7.46c5.62,4.97,8.43,12.01,8.43,21.12v52.54h-11.72v-22.37
			c-0.36,0.59-0.83,1.42-1.42,2.49c-0.59,1.06-1.98,2.9-4.17,5.5c-2.19,2.6-4.5,4.91-6.92,6.92c-2.43,2.01-5.56,3.85-9.41,5.5
			c-3.85,1.66-7.84,2.49-11.98,2.49c-7.22,0-13.43-2.04-18.64-6.12c-5.21-4.08-7.81-10.21-7.81-18.37c0-4.02,0.86-7.66,2.57-10.92
			c1.71-3.25,3.79-5.89,6.21-7.9c2.42-2.01,5.59-3.76,9.5-5.24c3.91-1.48,7.43-2.54,10.56-3.2c3.13-0.65,6.95-1.15,11.45-1.51
			c4.5-0.35,7.84-0.56,10.03-0.62c2.19-0.06,4.94-0.09,8.25-0.09c0.83,0,1.42,0,1.78,0c0-8.4-1.81-14.85-5.41-19.35
			c-3.61-4.5-8.08-6.75-13.4-6.75c-2.84,0-5.68,0.71-8.52,2.13c-2.84,1.42-5.33,3.14-7.46,5.15c-2.13,2.01-4.02,4.02-5.68,6.04
			c-1.66,2.01-2.96,3.73-3.91,5.15l-1.24,2.13l-4.97-8.17c2.72-3.31,6.98-6.48,12.78-9.5
			C2055.69-629.92,2061.9-631.43,2068.53-631.43z M2087.7-575.69v-26.27c-3.91,0-7.54,0.12-10.92,0.35
			c-3.37,0.24-7.04,0.62-11.01,1.15c-3.97,0.53-7.43,1.42-10.38,2.66c-2.96,1.24-5.74,2.75-8.34,4.53c-2.6,1.78-4.59,4.05-5.95,6.83
			c-1.36,2.78-2.04,6.01-2.04,9.67c0,6.04,1.74,11.16,5.24,15.35c3.49,4.2,8.49,6.3,15,6.3c3.43,0,6.75-0.68,9.94-2.04
			c3.2-1.36,5.86-3.08,7.99-5.15c2.13-2.07,4.02-4.11,5.68-6.12c1.66-2.01,2.84-3.73,3.55-5.15L2087.7-575.69z"/>
		<path class="st0" d="M2127.99-629.66v69.41c0,0.24,0,0.71,0,1.42s0,1.24,0,1.6c0,0.35,0.03,0.83,0.09,1.42
			c0.06,0.59,0.15,1.07,0.27,1.42c0.12,0.35,0.29,0.71,0.53,1.06c0.24,0.36,0.53,0.59,0.89,0.71c0.35,0.12,0.77,0.18,1.24,0.18v2.13
			c-10.06,0-15.09-4.32-15.09-12.96v-66.39h-11.89v-1.77h11.89v-21.12l12.07,7.81v13.31h11.89v1.77H2127.99z"/>
		<path class="st0" d="M2216.74-572.68l1.06,1.42c-11.36,14.79-23.96,22.19-37.81,22.19c-6.27,0-12.22-1.45-17.84-4.35
			c-5.62-2.9-10.33-7.39-14.11-13.49c-3.79-6.09-5.68-13.16-5.68-21.21c0-12.31,3.99-22.6,11.98-30.89
			c7.99-8.28,17.96-12.43,29.91-12.43c10.06,0,17.87,2.81,23.43,8.43c5.56,5.62,8.46,12.16,8.7,19.61l-62.48-0.35
			c-0.59,2.25-0.89,4.85-0.89,7.81c0,11.12,3.22,20.15,9.67,27.07c6.45,6.92,14.88,10.38,25.29,10.38
			C2198.87-558.48,2208.46-563.21,2216.74-572.68z M2178.58-629.3c-6.27,0-11.57,2.1-15.89,6.3c-4.32,4.2-7.19,10.03-8.61,17.48
			l49.7,0.36c-0.71-6.51-3.34-12.16-7.9-16.95c-4.56-4.79-10.21-7.19-16.95-7.19H2178.58z"/>
	</g>
	<path class="st0" d="M1917.75-808.63c-11.58-12.73-28.16-23.48-49.3-31.95l-51.25-21.68c-13.9-6.03-25.01-14.84-33.04-26.19
		c-6.92-9.78-7.91-18.8-3.12-28.38l0.06-0.12c2.92-6.02,9.06-10.49,18.79-13.67c10.4-3.39,22.45-3.29,35.82,0.31
		c8.51,2.62,16.98,6.54,25.17,11.65c11.25,7.01,15.27,10.08,16.64,11.26c3.22,2.79,4.59,4.27,5.12,4.9l8.98,10.75l32.87-47.24
		l-9.84-7.38l-0.3-0.22c-19.15-13.34-45.01-20.1-76.87-20.1c-26,0-48.34,6.99-66.38,20.78c-18.92,14.46-28.51,32.61-28.51,53.95
		c0,18.86,4.62,35.15,13.73,48.44c9.06,13.21,22.6,23.5,40.25,30.59c6.73,2.96,15.86,6.61,27.91,11.16
		c7.13,2.91,12.45,5.13,16.25,6.77c3.74,1.62,9.02,4.14,15.68,7.46c6.2,3.1,11.13,6.06,14.64,8.77c3.72,2.88,7.63,6.37,11.64,10.37
		c3.31,3.31,5.62,6.75,7.07,10.51c1.49,3.89,2.25,8.11,2.25,12.57c0,5.81-1.08,10.9-3.3,15.54c-2.2,4.59-4.94,8.12-8.39,10.81
		c-4.03,3.14-8.07,5.61-12.01,7.37c-3.73,1.66-7.34,2.7-10.73,3.1l-0.51,0.07c-7.74,1.29-15.37,0.54-23.32-2.29
		c-8.53-3.03-15.74-6.76-21.43-11.09c-5.97-4.53-11.88-10.15-17.57-16.69c-7.32-8.4-10.14-12.1-11.23-13.74l-0.61-0.91
		c-1.56-2.33-2.8-4.2-3.73-5.59l-9.11-13.72l-28.71,45.19L1625.6-964.92c-4.25-0.02-10.37-0.07-19.21-0.19l-15.22-0.2l12.48,36.13
		l0.03,0.1c0.41,1.15,0.37,2.06-0.15,3.27l-98.94,244.18h27.8l40.5-99.22h91.64l37.38,90.25l0.32,0.69
		c2.59,5.19,7.5,8.28,13.12,8.28h44.82l-12.57-30.53c2.88,2.83,6.86,5.94,12.15,9.52c5.21,3.53,11.31,7.08,18.13,10.55
		c7.27,3.72,16.14,6.79,27.11,9.38c10.77,2.55,22.11,3.85,33.69,3.85c15.94,0,31.3-3.24,45.65-9.62
		c14.67-6.52,27.06-16.42,36.83-29.45c10.07-13.43,15.18-28.89,15.18-45.95C1936.34-780,1930.09-795.05,1917.75-808.63z
		 M1652.52-806.99h-69.65l34.68-85.97L1652.52-806.99z"/>
</g>
<g>
	<g>
		<g>
			<g>
				<polygon class="st1" points="55.19,206.21 353.18,42.75 353.18,159.92 55.19,327.72 				"/>
			</g>
			<g>
				<polygon class="st1" points="353.18,277.09 353.18,391.37 55.19,554.83 55.19,436.21 				"/>
			</g>
			<g>
				<polygon class="st1" points="353.18,554.83 649.72,554.83 649.72,327.72 353.18,159.92 353.18,277.09 551.35,389.92 
					552.8,530.23 353.18,531.68 				"/>
			</g>
		</g>
	</g>
	<g>
		<path d="M739.79,510.33c2.49,4.26,8.43,10.24,17.84,17.93c9.41,7.69,18.02,13.2,25.83,16.51l-8.34,12.43
			c-10.77-4.5-23.37-20.06-37.81-46.68c-1.78,0.12-3.55,0.18-5.33,0.18h-10.3c-1.18,0-1.78,0.59-1.78,1.77v45.09H706.6V439.86h35.15
			c6.63,0,12.43,1.01,17.4,3.02c4.97,2.01,8.84,4.68,11.63,7.99c2.78,3.31,4.85,6.83,6.21,10.56c1.36,3.73,2.04,7.6,2.04,11.63
			c0,10.65-3.43,19.23-10.3,25.74C761.86,505.3,752.22,509.15,739.79,510.33z M719.91,506.6c0,0.59,0.18,1.06,0.53,1.42
			c0.35,0.35,0.77,0.53,1.24,0.53h10.3c10.65,0,18.82-2.72,24.5-8.17c5.68-5.44,8.52-13.25,8.52-23.43c0-4.38-0.56-8.55-1.69-12.51
			c-1.13-3.96-2.81-7.66-5.06-11.09c-2.25-3.43-5.36-6.15-9.32-8.17c-3.97-2.01-8.61-3.02-13.93-3.02h-13.31
			c-1.18,0-1.78,0.59-1.78,1.78V506.6z"/>
		<path d="M862.45,535l1.06,1.42c-11.36,14.79-23.96,22.19-37.81,22.19c-6.27,0-12.22-1.45-17.84-4.35
			c-5.62-2.9-10.33-7.39-14.11-13.49c-3.79-6.09-5.68-13.16-5.68-21.21c0-12.31,3.99-22.6,11.98-30.89
			c7.99-8.28,17.96-12.43,29.91-12.43c10.06,0,17.87,2.81,23.43,8.43c5.56,5.62,8.46,12.16,8.7,19.61l-62.48-0.35
			c-0.59,2.25-0.89,4.85-0.89,7.81c0,11.12,3.22,20.15,9.67,27.07c6.45,6.92,14.88,10.38,25.29,10.38
			C844.58,549.2,854.17,544.47,862.45,535z M824.29,478.38c-6.27,0-11.57,2.1-15.89,6.3c-4.32,4.2-7.19,10.03-8.61,17.48l49.7,0.36
			c-0.71-6.51-3.34-12.16-7.9-16.95c-4.56-4.79-10.21-7.19-16.95-7.19H824.29z"/>
		<path d="M911.62,476.25c9.35,0,16.83,2.49,22.45,7.46c5.62,4.97,8.43,12.01,8.43,21.12v52.54h-11.72V535
			c-0.36,0.59-0.83,1.42-1.42,2.49c-0.59,1.06-1.98,2.9-4.17,5.5c-2.19,2.6-4.5,4.91-6.92,6.92c-2.43,2.01-5.56,3.85-9.41,5.5
			c-3.85,1.66-7.84,2.49-11.98,2.49c-7.22,0-13.43-2.04-18.64-6.12c-5.21-4.08-7.81-10.21-7.81-18.37c0-4.02,0.86-7.66,2.57-10.92
			c1.71-3.25,3.79-5.89,6.21-7.9c2.42-2.01,5.59-3.76,9.5-5.24c3.91-1.48,7.42-2.54,10.56-3.2c3.13-0.65,6.95-1.15,11.45-1.51
			c4.5-0.35,7.84-0.56,10.03-0.62c2.19-0.06,4.94-0.09,8.25-0.09c0.83,0,1.42,0,1.78,0c0-8.4-1.81-14.85-5.41-19.35
			c-3.61-4.5-8.08-6.75-13.4-6.75c-2.84,0-5.68,0.71-8.52,2.13c-2.84,1.42-5.33,3.14-7.46,5.15c-2.13,2.01-4.02,4.02-5.68,6.04
			c-1.66,2.01-2.96,3.73-3.91,5.15l-1.24,2.13l-4.97-8.17c2.72-3.31,6.98-6.48,12.78-9.5C898.78,477.76,904.99,476.25,911.62,476.25
			z M930.79,531.99v-26.27c-3.91,0-7.54,0.12-10.92,0.35c-3.37,0.24-7.04,0.62-11.01,1.15c-3.97,0.53-7.43,1.42-10.38,2.66
			c-2.96,1.24-5.74,2.75-8.34,4.53c-2.6,1.78-4.59,4.05-5.95,6.83c-1.36,2.78-2.04,6.01-2.04,9.67c0,6.04,1.74,11.16,5.24,15.35
			c3.49,4.2,8.49,6.3,15,6.3c3.43,0,6.75-0.68,9.94-2.04c3.2-1.36,5.86-3.08,7.99-5.15c2.13-2.07,4.02-4.11,5.68-6.12
			c1.66-2.01,2.84-3.73,3.55-5.15L930.79,531.99z"/>
		<path d="M957.59,439.68l12.07,7.81v109.88h-12.07V439.68z"/>
		<path d="M1066.22,442.35c-1.06,0-1.6,0.53-1.6,1.6v48.64c0,0.47,0.18,0.92,0.53,1.33c0.36,0.42,0.83,0.62,1.42,0.62h37.45v2.49
			h-37.45c-0.59,0-1.06,0.18-1.42,0.53c-0.35,0.35-0.53,0.83-0.53,1.42v54.49c0,1.06,0.53,1.6,1.6,1.6h11.89
			c11.83,0,27.57-1.89,47.22-5.68v8.17h-73.84V439.86h73.84v8.17c-19.64-3.79-35.38-5.68-47.22-5.68H1066.22z"/>
		<path d="M1165.62,510.51c3.08,0.95,5.41,1.72,7.01,2.31c1.6,0.59,3.67,1.54,6.21,2.84c2.54,1.3,4.47,2.66,5.77,4.08
			c1.3,1.42,2.45,3.26,3.46,5.5c1,2.25,1.51,4.73,1.51,7.46c0,6.63-2.57,12.34-7.72,17.13c-5.15,4.79-12.4,7.19-21.74,7.19
			c-4.85,0-9.56-0.65-14.11-1.95c-4.56-1.3-7.84-2.6-9.85-3.91l-3.2-2.13l5.15-8.7c0.71,0.59,1.78,1.42,3.19,2.49
			c1.42,1.06,4.29,2.57,8.61,4.53c4.32,1.95,8.73,3.23,13.22,3.82c5.8,0.71,11.01-0.18,15.62-2.66c4.62-2.49,6.92-5.86,6.92-10.12
			c0-1.66-0.47-3.19-1.42-4.61c-0.95-1.42-2.4-2.69-4.35-3.82c-1.95-1.12-3.64-2.01-5.06-2.66c-1.42-0.65-3.49-1.51-6.21-2.57
			c-0.71-0.24-1.18-0.41-1.42-0.53c-0.47-0.24-4.08-1.45-10.83-3.64c-6.75-2.19-11.72-4.17-14.91-5.95
			c-4.26-2.25-7.49-5.41-9.67-9.5c-2.19-4.08-2.16-9.2,0.09-15.35c3.2-8.99,11.36-13.49,24.5-13.49c10.41,0,19.35,3.79,26.8,11.36
			l1.24,1.42l-5.68,10.65c-0.35-0.36-0.77-0.92-1.24-1.69c-0.47-0.77-1.51-2.16-3.11-4.17c-1.6-2.01-3.2-3.84-4.79-5.5
			c-1.6-1.66-3.52-3.28-5.77-4.88c-2.25-1.6-4.44-2.63-6.57-3.11c-4.02-1.18-7.81-1.33-11.36-0.44c-3.55,0.89-5.98,2.81-7.28,5.77
			c-1.07,2.13-1.33,4.2-0.8,6.21c0.53,2.01,1.33,3.76,2.4,5.24c1.06,1.48,2.54,2.87,4.44,4.17c1.89,1.3,3.58,2.34,5.06,3.11
			c1.48,0.77,2.93,1.39,4.35,1.86L1165.62,510.51z"/>
		<path d="M1215.68,478.02v69.41c0,0.24,0,0.71,0,1.42s0,1.24,0,1.6c0,0.35,0.03,0.83,0.09,1.42c0.06,0.59,0.15,1.07,0.27,1.42
			c0.12,0.35,0.29,0.71,0.53,1.06c0.24,0.36,0.53,0.59,0.89,0.71c0.35,0.12,0.77,0.18,1.24,0.18v2.13
			c-10.06,0-15.09-4.32-15.09-12.96v-66.39h-11.89v-1.78h11.89v-21.12l12.07,7.81v13.31h11.89v1.78H1215.68z"/>
		<path d="M1270.53,476.25c9.35,0,16.83,2.49,22.45,7.46c5.62,4.97,8.43,12.01,8.43,21.12v52.54h-11.72V535
			c-0.36,0.59-0.83,1.42-1.42,2.49c-0.59,1.06-1.98,2.9-4.17,5.5c-2.19,2.6-4.5,4.91-6.92,6.92c-2.43,2.01-5.56,3.85-9.41,5.5
			c-3.85,1.66-7.84,2.49-11.98,2.49c-7.22,0-13.43-2.04-18.64-6.12c-5.21-4.08-7.81-10.21-7.81-18.37c0-4.02,0.86-7.66,2.57-10.92
			c1.71-3.25,3.79-5.89,6.21-7.9c2.42-2.01,5.59-3.76,9.5-5.24c3.91-1.48,7.42-2.54,10.56-3.2c3.13-0.65,6.95-1.15,11.45-1.51
			c4.5-0.35,7.84-0.56,10.03-0.62c2.19-0.06,4.94-0.09,8.25-0.09c0.83,0,1.42,0,1.78,0c0-8.4-1.81-14.85-5.41-19.35
			c-3.61-4.5-8.08-6.75-13.4-6.75c-2.84,0-5.68,0.71-8.52,2.13c-2.84,1.42-5.33,3.14-7.46,5.15c-2.13,2.01-4.02,4.02-5.68,6.04
			c-1.66,2.01-2.96,3.73-3.91,5.15l-1.24,2.13l-4.97-8.17c2.72-3.31,6.98-6.48,12.78-9.5
			C1257.69,477.76,1263.9,476.25,1270.53,476.25z M1289.7,531.99v-26.27c-3.91,0-7.54,0.12-10.92,0.35
			c-3.37,0.24-7.04,0.62-11.01,1.15c-3.97,0.53-7.43,1.42-10.38,2.66c-2.96,1.24-5.74,2.75-8.34,4.53c-2.6,1.78-4.59,4.05-5.95,6.83
			c-1.36,2.78-2.04,6.01-2.04,9.67c0,6.04,1.74,11.16,5.24,15.35c3.49,4.2,8.49,6.3,15,6.3c3.43,0,6.75-0.68,9.94-2.04
			c3.2-1.36,5.86-3.08,7.99-5.15c2.13-2.07,4.02-4.11,5.68-6.12c1.66-2.01,2.84-3.73,3.55-5.15L1289.7,531.99z"/>
		<path d="M1329.99,478.02v69.41c0,0.24,0,0.71,0,1.42s0,1.24,0,1.6c0,0.35,0.03,0.83,0.09,1.42c0.06,0.59,0.15,1.07,0.27,1.42
			c0.12,0.35,0.29,0.71,0.53,1.06c0.24,0.36,0.53,0.59,0.89,0.71c0.35,0.12,0.77,0.18,1.24,0.18v2.13
			c-10.06,0-15.09-4.32-15.09-12.96v-66.39h-11.89v-1.78h11.89v-21.12l12.07,7.81v13.31h11.89v1.78H1329.99z"/>
		<path d="M1418.74,535l1.06,1.42c-11.36,14.79-23.96,22.19-37.81,22.19c-6.27,0-12.22-1.45-17.84-4.35
			c-5.62-2.9-10.33-7.39-14.11-13.49c-3.79-6.09-5.68-13.16-5.68-21.21c0-12.31,3.99-22.6,11.98-30.89
			c7.99-8.28,17.96-12.43,29.91-12.43c10.06,0,17.87,2.81,23.43,8.43c5.56,5.62,8.46,12.16,8.7,19.61l-62.48-0.35
			c-0.59,2.25-0.89,4.85-0.89,7.81c0,11.12,3.22,20.15,9.67,27.07c6.45,6.92,14.88,10.38,25.29,10.38
			C1400.87,549.2,1410.46,544.47,1418.74,535z M1380.58,478.38c-6.27,0-11.57,2.1-15.89,6.3c-4.32,4.2-7.19,10.03-8.61,17.48
			l49.7,0.36c-0.71-6.51-3.34-12.16-7.9-16.95c-4.56-4.79-10.21-7.19-16.95-7.19H1380.58z"/>
	</g>
	<path d="M1119.75,299.05c-11.58-12.73-28.16-23.48-49.3-31.95l-51.25-21.68c-13.9-6.03-25.01-14.84-33.04-26.19
		c-6.92-9.78-7.91-18.8-3.12-28.38l0.06-0.12c2.92-6.02,9.06-10.49,18.79-13.67c10.4-3.39,22.45-3.29,35.82,0.31
		c8.51,2.62,16.98,6.54,25.17,11.65c11.25,7.01,15.27,10.08,16.64,11.26c3.22,2.79,4.59,4.27,5.12,4.9l8.98,10.75l32.87-47.24
		l-9.84-7.38l-0.3-0.22c-19.15-13.34-45.01-20.1-76.87-20.1c-26,0-48.34,6.99-66.38,20.78c-18.92,14.46-28.51,32.61-28.51,53.95
		c0,18.86,4.62,35.15,13.73,48.44c9.06,13.21,22.6,23.5,40.25,30.59c6.73,2.96,15.86,6.61,27.91,11.16
		c7.13,2.91,12.45,5.13,16.25,6.77c3.74,1.62,9.02,4.14,15.68,7.46c6.2,3.1,11.13,6.06,14.64,8.77c3.72,2.88,7.63,6.37,11.64,10.37
		c3.31,3.31,5.62,6.75,7.07,10.51c1.49,3.89,2.25,8.11,2.25,12.57c0,5.81-1.08,10.9-3.3,15.54c-2.2,4.59-4.94,8.12-8.39,10.81
		c-4.03,3.14-8.07,5.61-12.01,7.37c-3.73,1.66-7.34,2.7-10.73,3.1l-0.51,0.07c-7.74,1.29-15.37,0.54-23.32-2.29
		c-8.53-3.03-15.74-6.76-21.43-11.09c-5.97-4.53-11.88-10.15-17.57-16.69c-7.32-8.4-10.14-12.1-11.23-13.74l-0.61-0.91
		c-1.56-2.33-2.8-4.2-3.73-5.59l-9.11-13.72l-28.71,45.19L827.6,142.76c-4.25-0.02-10.38-0.07-19.21-0.19l-15.22-0.2l12.48,36.13
		l0.03,0.1c0.41,1.15,0.37,2.06-0.15,3.27L706.6,426.03h27.8l40.5-99.22h91.64l37.38,90.25l0.32,0.69c2.59,5.19,7.5,8.28,13.12,8.28
		h44.82l-12.57-30.53c2.88,2.83,6.86,5.94,12.15,9.52c5.21,3.53,11.31,7.08,18.13,10.55c7.27,3.72,16.14,6.79,27.11,9.38
		c10.77,2.55,22.11,3.85,33.69,3.85c15.94,0,31.3-3.24,45.65-9.62c14.67-6.52,27.06-16.42,36.83-29.45
		c10.07-13.43,15.18-28.89,15.18-45.95C1138.34,327.68,1132.09,312.63,1119.75,299.05z M854.52,300.69h-69.65l34.68-85.97
		L854.52,300.69z"/>
</g>
<g>
	<g>
		<g>
			<g>
				<polygon class="st1" points="-1093.81,-874.79 -795.82,-1038.25 -795.82,-921.08 -1093.81,-753.28 				"/>
			</g>
			<g>
				<polygon class="st1" points="-795.82,-803.91 -795.82,-689.63 -1093.81,-526.17 -1093.81,-644.79 				"/>
			</g>
			<g>
				<polygon class="st1" points="-795.82,-526.17 -499.28,-526.17 -499.28,-753.28 -795.82,-921.08 -795.82,-803.91 
					-597.65,-691.08 -596.2,-550.77 -795.82,-549.32 				"/>
			</g>
		</g>
	</g>
	<g>
		<path class="st0" d="M-409.21-570.67c2.49,4.26,8.43,10.24,17.84,17.93c9.41,7.69,18.02,13.2,25.83,16.51l-8.34,12.43
			c-10.77-4.5-23.37-20.06-37.81-46.68c-1.77,0.12-3.55,0.18-5.33,0.18h-10.3c-1.18,0-1.78,0.59-1.78,1.77v45.09h-13.31v-117.69
			h35.15c6.63,0,12.43,1.01,17.4,3.02c4.97,2.01,8.84,4.68,11.63,7.99c2.78,3.31,4.85,6.83,6.21,10.56
			c1.36,3.73,2.04,7.6,2.04,11.63c0,10.65-3.43,19.23-10.3,25.74C-387.14-575.7-396.78-571.85-409.21-570.67z M-429.09-574.4
			c0,0.59,0.18,1.06,0.53,1.42c0.35,0.35,0.77,0.53,1.24,0.53h10.3c10.65,0,18.82-2.72,24.5-8.17c5.68-5.44,8.52-13.25,8.52-23.43
			c0-4.38-0.56-8.55-1.69-12.51c-1.13-3.96-2.81-7.66-5.06-11.09c-2.25-3.43-5.36-6.15-9.32-8.16c-3.97-2.01-8.61-3.02-13.93-3.02
			h-13.31c-1.18,0-1.78,0.59-1.78,1.78V-574.4z"/>
		<path class="st0" d="M-286.55-546l1.06,1.42c-11.36,14.79-23.96,22.19-37.81,22.19c-6.27,0-12.22-1.45-17.84-4.35
			c-5.62-2.9-10.33-7.39-14.11-13.49c-3.79-6.09-5.68-13.16-5.68-21.21c0-12.31,3.99-22.6,11.98-30.89
			c7.99-8.28,17.96-12.43,29.91-12.43c10.06,0,17.87,2.81,23.43,8.43c5.56,5.62,8.46,12.16,8.7,19.61l-62.48-0.35
			c-0.59,2.25-0.89,4.85-0.89,7.81c0,11.12,3.22,20.15,9.67,27.07c6.45,6.92,14.88,10.38,25.29,10.38
			C-304.42-531.8-294.83-536.53-286.55-546z M-324.71-602.62c-6.27,0-11.57,2.1-15.89,6.3c-4.32,4.2-7.19,10.03-8.61,17.48
			l49.7,0.36c-0.71-6.51-3.34-12.16-7.9-16.95c-4.56-4.79-10.21-7.19-16.95-7.19H-324.71z"/>
		<path class="st0" d="M-237.38-604.75c9.35,0,16.83,2.49,22.45,7.46c5.62,4.97,8.43,12.01,8.43,21.12v52.54h-11.72V-546
			c-0.36,0.59-0.83,1.42-1.42,2.49c-0.59,1.06-1.98,2.9-4.17,5.5c-2.19,2.6-4.5,4.91-6.92,6.92c-2.43,2.01-5.56,3.85-9.41,5.5
			c-3.85,1.66-7.84,2.49-11.98,2.49c-7.22,0-13.43-2.04-18.64-6.12c-5.21-4.08-7.81-10.21-7.81-18.37c0-4.02,0.86-7.66,2.57-10.92
			c1.71-3.25,3.79-5.89,6.21-7.9c2.42-2.01,5.59-3.76,9.5-5.24c3.91-1.48,7.42-2.54,10.56-3.2c3.13-0.65,6.95-1.15,11.45-1.51
			c4.5-0.35,7.84-0.56,10.03-0.62c2.19-0.06,4.94-0.09,8.25-0.09c0.83,0,1.42,0,1.78,0c0-8.4-1.81-14.85-5.41-19.35
			c-3.61-4.5-8.08-6.75-13.4-6.75c-2.84,0-5.68,0.71-8.52,2.13c-2.84,1.42-5.33,3.14-7.46,5.15c-2.13,2.01-4.02,4.02-5.68,6.04
			c-1.66,2.01-2.96,3.73-3.91,5.15l-1.24,2.13l-4.97-8.17c2.72-3.31,6.98-6.48,12.78-9.5
			C-250.22-603.24-244.01-604.75-237.38-604.75z M-218.21-549.01v-26.27c-3.91,0-7.54,0.12-10.92,0.35
			c-3.37,0.24-7.04,0.62-11.01,1.15c-3.97,0.53-7.43,1.42-10.38,2.66c-2.96,1.24-5.74,2.75-8.34,4.53c-2.6,1.78-4.59,4.05-5.95,6.83
			c-1.36,2.78-2.04,6.01-2.04,9.67c0,6.04,1.74,11.16,5.24,15.35c3.49,4.2,8.49,6.3,15,6.3c3.43,0,6.75-0.68,9.94-2.04
			c3.2-1.36,5.86-3.08,7.99-5.15c2.13-2.07,4.02-4.11,5.68-6.12c1.66-2.01,2.84-3.73,3.55-5.15L-218.21-549.01z"/>
		<path class="st0" d="M-191.41-641.32l12.07,7.81v109.88h-12.07V-641.32z"/>
		<path class="st0" d="M-82.78-638.65c-1.06,0-1.6,0.53-1.6,1.6v48.64c0,0.47,0.18,0.92,0.53,1.33c0.36,0.42,0.83,0.62,1.42,0.62
			h37.45v2.49h-37.45c-0.59,0-1.06,0.18-1.42,0.53c-0.35,0.35-0.53,0.83-0.53,1.42v54.49c0,1.06,0.53,1.6,1.6,1.6h11.89
			c11.83,0,27.57-1.89,47.22-5.68v8.17h-73.84v-117.69h73.84v8.17c-19.64-3.79-35.38-5.68-47.22-5.68H-82.78z"/>
		<path class="st0" d="M16.62-570.49c3.08,0.95,5.41,1.72,7.01,2.31c1.6,0.59,3.67,1.54,6.21,2.84c2.54,1.3,4.47,2.66,5.77,4.08
			c1.3,1.42,2.45,3.26,3.46,5.5c1,2.25,1.51,4.73,1.51,7.46c0,6.63-2.57,12.34-7.72,17.13c-5.15,4.79-12.4,7.19-21.74,7.19
			c-4.85,0-9.56-0.65-14.11-1.95c-4.56-1.3-7.84-2.6-9.85-3.91l-3.2-2.13l5.15-8.7c0.71,0.59,1.78,1.42,3.19,2.49
			c1.42,1.06,4.29,2.57,8.61,4.53c4.32,1.95,8.73,3.23,13.22,3.82c5.8,0.71,11.01-0.18,15.62-2.66c4.62-2.49,6.92-5.86,6.92-10.12
			c0-1.66-0.47-3.19-1.42-4.61c-0.95-1.42-2.4-2.69-4.35-3.82c-1.95-1.12-3.64-2.01-5.06-2.66c-1.42-0.65-3.49-1.51-6.21-2.57
			c-0.71-0.24-1.18-0.41-1.42-0.53c-0.47-0.24-4.08-1.45-10.83-3.64c-6.75-2.19-11.72-4.17-14.91-5.95
			c-4.26-2.25-7.49-5.41-9.67-9.5c-2.19-4.08-2.16-9.2,0.09-15.35c3.2-8.99,11.36-13.49,24.5-13.49c10.41,0,19.35,3.79,26.8,11.36
			l1.24,1.42l-5.68,10.65c-0.35-0.36-0.77-0.92-1.24-1.69c-0.47-0.77-1.51-2.16-3.11-4.17c-1.6-2.01-3.2-3.84-4.79-5.5
			c-1.6-1.66-3.52-3.28-5.77-4.88c-2.25-1.6-4.44-2.63-6.57-3.11c-4.02-1.18-7.81-1.33-11.36-0.44c-3.55,0.89-5.98,2.81-7.28,5.77
			c-1.07,2.13-1.33,4.2-0.8,6.21c0.53,2.01,1.33,3.76,2.4,5.24c1.06,1.48,2.54,2.87,4.44,4.17c1.89,1.3,3.58,2.34,5.06,3.11
			c1.48,0.77,2.93,1.39,4.35,1.86L16.62-570.49z"/>
		<path class="st0" d="M66.68-602.98v69.41c0,0.24,0,0.71,0,1.42s0,1.24,0,1.6c0,0.35,0.03,0.83,0.09,1.42
			c0.06,0.59,0.15,1.07,0.27,1.42c0.12,0.35,0.29,0.71,0.53,1.06c0.24,0.36,0.53,0.59,0.89,0.71c0.35,0.12,0.77,0.18,1.24,0.18v2.13
			c-10.06,0-15.09-4.32-15.09-12.96v-66.39H42.72v-1.78h11.89v-21.12l12.07,7.81v13.31h11.89v1.78H66.68z"/>
		<path class="st0" d="M121.53-604.75c9.35,0,16.83,2.49,22.45,7.46c5.62,4.97,8.43,12.01,8.43,21.12v52.54H140.7V-546
			c-0.36,0.59-0.83,1.42-1.42,2.49c-0.59,1.06-1.98,2.9-4.17,5.5c-2.19,2.6-4.5,4.91-6.92,6.92c-2.43,2.01-5.56,3.85-9.41,5.5
			c-3.85,1.66-7.84,2.49-11.98,2.49c-7.22,0-13.43-2.04-18.64-6.12c-5.21-4.08-7.81-10.21-7.81-18.37c0-4.02,0.86-7.66,2.57-10.92
			c1.71-3.25,3.79-5.89,6.21-7.9c2.42-2.01,5.59-3.76,9.5-5.24c3.91-1.48,7.42-2.54,10.56-3.2c3.13-0.65,6.95-1.15,11.45-1.51
			c4.5-0.35,7.84-0.56,10.03-0.62c2.19-0.06,4.94-0.09,8.25-0.09c0.83,0,1.42,0,1.78,0c0-8.4-1.81-14.85-5.41-19.35
			c-3.61-4.5-8.08-6.75-13.4-6.75c-2.84,0-5.68,0.71-8.52,2.13c-2.84,1.42-5.33,3.14-7.46,5.15c-2.13,2.01-4.02,4.02-5.68,6.04
			c-1.66,2.01-2.96,3.73-3.91,5.15l-1.24,2.13l-4.97-8.17c2.72-3.31,6.98-6.48,12.78-9.5C108.69-603.24,114.9-604.75,121.53-604.75z
			 M140.7-549.01v-26.27c-3.91,0-7.54,0.12-10.92,0.35c-3.37,0.24-7.04,0.62-11.01,1.15c-3.97,0.53-7.43,1.42-10.38,2.66
			c-2.96,1.24-5.74,2.75-8.34,4.53c-2.6,1.78-4.59,4.05-5.95,6.83c-1.36,2.78-2.04,6.01-2.04,9.67c0,6.04,1.74,11.16,5.24,15.35
			c3.49,4.2,8.49,6.3,15,6.3c3.43,0,6.75-0.68,9.94-2.04c3.2-1.36,5.86-3.08,7.99-5.15c2.13-2.07,4.02-4.11,5.68-6.12
			c1.66-2.01,2.84-3.73,3.55-5.15L140.7-549.01z"/>
		<path class="st0" d="M180.99-602.98v69.41c0,0.24,0,0.71,0,1.42s0,1.24,0,1.6c0,0.35,0.03,0.83,0.09,1.42
			c0.06,0.59,0.15,1.07,0.27,1.42c0.12,0.35,0.29,0.71,0.53,1.06c0.24,0.36,0.53,0.59,0.89,0.71c0.35,0.12,0.77,0.18,1.24,0.18v2.13
			c-10.06,0-15.09-4.32-15.09-12.96v-66.39h-11.89v-1.78h11.89v-21.12l12.07,7.81v13.31h11.89v1.78H180.99z"/>
		<path class="st0" d="M269.74-546l1.06,1.42c-11.36,14.79-23.96,22.19-37.81,22.19c-6.27,0-12.22-1.45-17.84-4.35
			c-5.62-2.9-10.33-7.39-14.11-13.49c-3.79-6.09-5.68-13.16-5.68-21.21c0-12.31,3.99-22.6,11.98-30.89
			c7.99-8.28,17.96-12.43,29.91-12.43c10.06,0,17.87,2.81,23.43,8.43c5.56,5.62,8.46,12.16,8.7,19.61l-62.48-0.35
			c-0.59,2.25-0.89,4.85-0.89,7.81c0,11.12,3.22,20.15,9.67,27.07c6.45,6.92,14.88,10.38,25.29,10.38
			C251.87-531.8,261.46-536.53,269.74-546z M231.58-602.62c-6.27,0-11.57,2.1-15.89,6.3c-4.32,4.2-7.19,10.03-8.61,17.48l49.7,0.36
			c-0.71-6.51-3.34-12.16-7.9-16.95c-4.56-4.79-10.21-7.19-16.95-7.19H231.58z"/>
	</g>
	<path class="st0" d="M-29.25-781.95c-11.58-12.73-28.16-23.48-49.3-31.95l-51.25-21.68c-13.9-6.03-25.01-14.84-33.04-26.19
		c-6.92-9.78-7.91-18.8-3.12-28.38l0.06-0.12c2.92-6.02,9.06-10.49,18.79-13.67c10.4-3.39,22.45-3.29,35.82,0.31
		c8.51,2.62,16.98,6.54,25.17,11.65c11.25,7.01,15.27,10.08,16.64,11.26c3.22,2.79,4.59,4.27,5.12,4.9l8.98,10.75l32.87-47.24
		l-9.84-7.38l-0.3-0.22c-19.15-13.34-45.01-20.1-76.87-20.1c-26,0-48.34,6.99-66.38,20.78c-18.92,14.46-28.51,32.61-28.51,53.95
		c0,18.86,4.62,35.15,13.73,48.44c9.06,13.21,22.6,23.5,40.25,30.59c6.73,2.96,15.86,6.61,27.91,11.16
		c7.13,2.91,12.45,5.13,16.25,6.77c3.74,1.62,9.02,4.14,15.68,7.46c6.2,3.1,11.13,6.06,14.64,8.77c3.72,2.88,7.63,6.37,11.64,10.37
		c3.31,3.31,5.62,6.75,7.07,10.51c1.49,3.89,2.25,8.11,2.25,12.57c0,5.81-1.08,10.9-3.3,15.54c-2.2,4.59-4.94,8.12-8.39,10.81
		c-4.03,3.14-8.07,5.61-12.01,7.37c-3.73,1.66-7.34,2.7-10.73,3.1l-0.51,0.07c-7.74,1.29-15.37,0.54-23.32-2.29
		c-8.53-3.03-15.74-6.76-21.43-11.09c-5.97-4.53-11.88-10.15-17.57-16.69c-7.32-8.4-10.14-12.1-11.23-13.74l-0.61-0.91
		c-1.56-2.33-2.8-4.2-3.73-5.59l-9.11-13.72l-28.71,45.19L-321.4-938.24c-4.25-0.02-10.38-0.07-19.21-0.19l-15.22-0.2l12.48,36.13
		l0.03,0.1c0.41,1.15,0.37,2.06-0.15,3.27l-98.94,244.18h27.8l40.5-99.22h91.64l37.38,90.25l0.32,0.69
		c2.59,5.19,7.5,8.28,13.12,8.28h44.82l-12.57-30.53c2.88,2.83,6.86,5.94,12.15,9.52c5.21,3.53,11.31,7.08,18.13,10.55
		c7.27,3.72,16.14,6.79,27.11,9.38c10.77,2.55,22.11,3.85,33.69,3.85c15.94,0,31.3-3.24,45.65-9.62
		c14.67-6.52,27.06-16.42,36.83-29.45c10.07-13.43,15.18-28.89,15.18-45.95C-10.66-753.32-16.91-768.37-29.25-781.95z
		 M-294.48-780.31h-69.65l34.68-85.97L-294.48-780.31z"/>
</g>
</svg>
