<svg width="500" height="500" version="1.1" xmlns="http://www.w3.org/2000/svg" desc="Created with imagetracer.js version 1.2.6" ><path fill="rgb(0,0,0)" stroke="rgb(0,0,0)" stroke-width="1" opacity="0" d="M 0 0 L 500 0 L 500 500 L 0 500 L 0 0 Z M 185 164 L 180 178 L 177 182 L 177 185 L 173 191 L 162 217 L 151 238 L 151 241 L 144 253 L 147 255 L 146 257 L 168 257 L 182 250 L 199 244 L 201 242 L 204 242 L 210 256 L 211 257 L 231 257 L 221 235 L 257 218 L 271 226 L 273 231 L 272 235 L 265 238 L 258 238 L 250 235 L 245 229 L 229 241 L 235 249 L 240 252 Q 243 251 242 254 L 253 257 L 269 257 Q 279 254 286 249 L 291 241 L 292 236 L 292 227 L 288 217 L 282 211 L 280 208 L 311 195 L 345 213 L 350 217 Q 353 216 352 219 L 356 219 L 355 216 Q 352 217 353 214 Q 346 211 342 205 Q 339 206 340 203 L 338 203 L 338 201 L 336 201 L 336 192 L 330 185 Q 327 186 328 193 L 327 192 Q 324 193 325 190 L 319 185 Q 316 186 317 183 L 313 180 L 309 180 L 250 208 L 248 208 L 261 202 L 263 198 L 254 194 Q 251 193 252 188 L 258 183 L 266 183 L 274 190 L 279 187 Q 281 188 280 185 L 287 181 L 284 174 L 280 169 L 267 164 L 256 164 L 243 169 L 235 178 L 232 188 L 233 198 L 235 200 L 235 202 Q 238 201 237 204 L 244 209 L 246 208 L 247 209 L 150 254 L 148 254 L 170 244 L 176 231 L 176 229 L 186 210 Q 185 206 188 207 L 190 215 Q 195 219 196 228 L 199 230 L 215 223 L 211 212 L 202 196 L 200 189 L 196 183 L 189 166 L 185 164 Z M 305 206 L 303 208 Q 302 213 304 215 Q 302 216 303 221 L 305 222 L 319 222 L 319 208 L 318 206 L 316 207 L 306 207 L 305 206 Z M 111 269 L 108 272 L 95 307 L 97 308 L 106 308 L 109 303 L 110 299 L 121 299 L 123 306 L 126 308 L 136 308 L 135 302 L 129 290 L 129 287 L 127 285 L 123 271 L 122 269 L 111 269 Z M 148 269 L 141 272 L 137 278 L 138 288 L 145 293 L 155 296 Q 157 295 156 298 L 150 298 L 139 294 Q 139 299 136 301 L 136 304 L 139 306 Q 144 305 146 308 L 160 308 L 164 306 L 168 301 Q 170 292 166 289 L 160 284 L 150 281 L 151 279 L 158 280 Q 160 283 165 283 Q 165 278 169 275 Q 162 268 148 269 Z M 194 269 L 187 272 L 182 277 L 179 286 L 180 297 L 182 301 Q 185 306 193 308 L 207 308 L 213 305 L 213 307 L 215 308 L 223 308 L 227 301 L 228 299 L 239 299 Q 239 305 243 308 L 253 308 L 254 307 L 240 270 Q 237 268 229 269 L 224 276 L 214 304 L 211 298 L 209 295 L 203 298 Q 196 299 194 297 L 192 294 Q 190 283 194 280 L 199 279 Q 205 280 209 283 L 213 277 L 213 274 Q 207 267 194 269 Z M 258 269 L 255 272 L 255 306 L 256 308 L 267 308 L 267 297 Q 276 298 282 295 L 288 287 L 288 280 L 286 276 L 279 270 L 258 269 Z M 291 269 L 291 271 L 291 273 L 291 308 L 292 308 L 301 308 L 302 307 L 302 271 L 301 269 L 291 269 Z M 307 269 L 306 270 L 304 271 L 304 278 L 307 280 L 316 280 L 316 307 L 318 308 L 327 308 L 327 280 L 338 280 Q 340 277 339 271 L 338 269 L 307 269 Z M 350 269 L 347 270 L 334 305 L 334 307 L 335 308 L 344 308 Q 347 306 347 301 L 349 299 L 360 299 L 362 307 L 364 308 L 374 308 L 374 304 L 361 271 L 360 269 L 350 269 Z M 379 269 L 376 272 L 376 307 L 378 308 L 404 308 L 405 307 L 405 298 L 388 298 L 388 269 L 379 269 Z M 168 313 L 166 315 L 166 335 L 169 336 L 170 335 L 171 327 L 175 333 Q 176 337 181 336 L 181 331 L 179 331 L 177 328 L 181 323 L 181 318 Q 178 318 179 314 L 177 315 Q 174 312 168 313 Z M 186 313 L 183 314 L 183 335 L 185 336 L 198 336 L 199 335 L 201 336 L 204 332 L 205 330 L 212 330 L 216 336 L 218 335 L 217 331 Q 218 327 215 328 L 215 325 L 213 323 L 211 316 L 208 313 L 205 316 L 200 330 Q 196 333 188 332 L 188 331 L 187 329 L 188 326 L 195 326 L 196 324 L 195 322 L 187 322 L 187 317 L 198 317 L 198 313 L 186 313 Z M 221 313 L 219 315 L 219 335 L 221 336 L 233 336 L 234 335 L 234 332 L 224 332 L 224 316 L 221 313 Z M 243 313 L 242 314 L 240 315 L 240 335 L 243 336 L 255 336 L 257 334 L 261 336 L 269 335 L 272 331 L 270 324 L 262 321 Q 258 319 263 317 L 269 319 Q 271 316 278 317 L 278 335 L 280 336 L 282 335 L 282 318 L 283 317 L 289 317 L 289 314 L 287 313 L 273 313 L 271 315 L 267 313 Q 260 312 257 315 L 256 322 L 260 325 L 267 329 L 266 332 L 261 331 L 246 332 L 245 326 L 252 326 L 253 325 Q 251 321 246 322 L 245 320 L 246 317 L 256 317 L 256 314 Q 252 312 243 313 Z M 296 313 L 293 314 L 285 335 L 289 336 L 291 330 L 295 329 L 300 330 Q 299 335 303 336 L 305 335 L 298 314 L 296 313 Z M 304 313 L 302 315 L 302 317 L 309 317 L 309 335 L 312 336 L 313 334 L 313 317 L 320 317 Q 321 313 319 314 L 317 314 L 316 313 L 304 313 Z M 323 313 L 321 315 L 321 335 L 324 336 L 335 336 L 336 335 L 336 332 L 325 332 L 325 326 L 333 326 L 333 322 L 325 322 L 325 317 L 336 317 L 336 315 L 335 313 L 323 313 Z " /><path fill="rgb(0,0,0)" stroke="rgb(0,0,0)" stroke-width="1" opacity="0" d="M 267 280 Q 274.1 278.3 276 282.5 Q 276.5 286.5 273.5 287 L 267 287 L 267 280 Z " /><path fill="rgb(0,0,0)" stroke="rgb(0,0,0)" stroke-width="1" opacity="0" d="M 353.5 282 L 356 288.5 L 351.5 289 L 352 287.5 L 353.5 282 Z " /><path fill="rgb(0,0,0)" stroke="rgb(0,0,0)" stroke-width="1" opacity="0" d="M 114 284 Q 116.7 282.9 116 285.5 L 117 289 L 113 288.5 L 114 284 Z " /><path fill="rgb(0,0,0)" stroke="rgb(0,0,0)" stroke-width="1" opacity="0" d="M 232.5 284 Q 235.8 285.2 235 289 Q 229.8 291.1 231 286.5 L 232.5 284 Z " /><path fill="rgb(0,0,0)" stroke="rgb(0,0,0)" stroke-width="1" opacity="0" d="M 170 317 Q 174.9 316.9 177 320.5 Q 175.5 324.3 170 323 L 170 317 Z " /><path fill="rgb(0,0,0)" stroke="rgb(0,0,0)" stroke-width="1" opacity="0" d="M 295.5 320 L 297 326 L 293 326 L 293 324.5 L 295.5 320 Z " /><path fill="rgb(0,0,0)" stroke="rgb(0,0,0)" stroke-width="1" opacity="0" d="M 208.5 321 L 210 326 L 206 325.5 L 208.5 321 Z " /><path fill="rgb(34,116,165)" stroke="rgb(34,116,165)" stroke-width="1" opacity="0.9529411764705882" d="M 186 165 Q 188.7 163.9 188 166.5 L 214 221.5 L 198 229 L 188 205 Q 185.3 203.9 186 206.5 L 168.5 243 L 146 253 L 186 165 Z " /><path fill="rgb(34,116,165)" stroke="rgb(34,116,165)" stroke-width="1" opacity="0.9529411764705882" d="M 255.5 165 L 267.5 165 L 280 170 Q 278.9 172.7 281.5 172 Q 285.3 174.7 286 180.5 L 273.5 189 L 270.5 185 Q 267 181.5 259.5 182 Q 253.8 183.3 251 187.5 Q 249.8 194.8 254.5 196 L 262 199.5 L 243.5 208 L 238 203.5 L 233 193.5 L 233 185.5 Q 235.1 176.1 241.5 171 L 255.5 165 Z " /><path fill="rgb(34,116,165)" stroke="rgb(34,116,165)" stroke-width="1" opacity="0.9529411764705882" d="M 308.5 181 L 312.5 181 L 319 186 Q 317.9 188.7 320.5 188 Q 323.3 193.2 329 194 L 329.5 187 L 335 191.5 L 335 200.5 L 340.5 206 L 350 213.5 Q 349.3 215.8 351.5 215 L 352.5 217 L 310.5 194 L 278 208.5 L 285 214 L 291 225.5 L 291 237.5 Q 288.2 246.2 281.5 251 L 269.5 256 L 251.5 256 Q 239.2 253.3 233 244.5 L 231 239.5 L 243.5 230 L 252.5 238 L 264.5 239 L 270.5 237 L 273 234.5 L 274 230.5 L 270.5 225 L 256.5 217 L 247.5 222 L 220 233 L 230 255.5 L 211.5 256 L 209 253.5 L 209 250.5 L 203.5 241 L 167.5 256 L 149.5 256 L 150.5 254 L 202.5 230 L 209.5 228 L 219.5 222 L 308.5 181 Z " /><path fill="rgb(34,116,165)" stroke="rgb(34,116,165)" stroke-width="1" opacity="0.9529411764705882" d="M 304 207 L 310.5 207 L 311.5 208 L 318 207 L 319 209.5 L 318 210.5 L 318 221 L 315.5 222 L 312.5 221 L 307.5 222 L 304 220.5 L 304 207 Z " /><path fill="rgb(28,132,230)" stroke="rgb(28,132,230)" stroke-width="1" opacity="0.996078431372549" d="M 116.5 271 L 118.5 271 L 121 272.5 L 124 280.5 L 123.5 282 L 125 282.5 L 125 284.5 L 127 292 L 129 292.5 L 128 293.5 L 131 296.5 L 131 298.5 L 133 302.5 L 133 304.5 Q 133.6 307.3 127.5 306 L 125 305 Q 125.3 298.5 120.5 296 L 116.5 295 L 112.5 297 L 110.5 297 L 106 299.5 L 107 302.5 L 103.5 306 Q 99 307 98 304.5 L 103 290 Q 106 291.3 105 287.5 L 107 283.5 L 107 279.5 L 111.5 272 L 116.5 271 Z M 115 280 L 111 286 L 111 290 L 110 292 Q 118 293 121 290 L 118 284 L 118 282 L 115 280 Z M 128 297 L 126 300 L 128 299 L 130 300 L 130 299 L 128 297 Z M 101 302 L 101 304 L 104 304 Q 105 300 101 302 Z " /><path fill="rgb(28,132,230)" stroke="rgb(28,132,230)" stroke-width="1" opacity="0.996078431372549" d="M 149.5 271 Q 158 270 161.5 274 L 163.5 274 Q 166.5 273.1 165 277.5 L 162.5 281 L 157 279 L 156.5 277 L 154.5 277 L 147.5 277 L 147 278.5 L 146.5 282 L 156.5 287 L 158.5 287 L 164 289 L 165.5 294 L 167 293.5 L 164.5 297 Q 166.8 296.3 166 298.5 L 165 302 Q 162.3 300.9 163 303.5 L 161.5 305 Q 154.8 304.3 151.5 307 Q 150 303.5 148.5 306 L 142.5 304 Q 141 306.5 139.5 303 L 138 302.5 L 139.5 299 L 141 299.5 L 141.5 297 Q 146.9 300.6 155.5 301 L 159 299 L 155.5 293 L 151 293 Q 152.1 290.3 149.5 291 L 148 291.5 L 147.5 290 L 145.5 291 L 142 289 L 139 284.5 L 139 279.5 L 140.5 276 Q 142.8 276.8 142 274.5 L 145.5 272 L 147.5 272 L 149.5 271 Z M 158 276 L 158 277 L 160 277 L 158 276 Z M 158 292 L 158 293 L 160 293 L 158 292 Z " /><path fill="rgb(28,132,230)" stroke="rgb(28,132,230)" stroke-width="1" opacity="0.996078431372549" d="M 195.5 271 Q 202.2 269.8 204.5 273 L 206.5 273 Q 210.3 271.8 209 275.5 L 211 275.5 L 209 279 L 206.5 280 Q 203.9 276.1 196.5 277 L 190 282.5 L 190.5 284 L 189 283.5 L 190 286.5 L 189 290.5 L 192.5 298 L 199.5 301 L 208.5 298 L 210 300.5 L 210 302.5 L 208.5 305 L 197.5 307 L 194.5 305 L 192.5 305 L 187 302.5 Q 188.1 299.2 185.5 300 L 183 299 L 182 295.5 L 184 292.5 L 181 292 L 182 285.5 L 182 283.5 L 183 279 L 186 277.5 L 188 274.5 L 191.5 273 L 195.5 271 Z M 184 293 L 184 295 L 186 294 L 184 293 Z " /><path fill="rgb(28,132,230)" stroke="rgb(28,132,230)" stroke-width="1" opacity="0.996078431372549" d="M 230 271 Q 236 270.1 239 273.5 L 243 286.5 Q 240.8 287.8 243.5 289 L 245 288.5 L 245 291.5 L 250 301.5 Q 247.5 303 251 304.5 Q 251.8 307.1 248.5 306 L 246.5 305 L 244.5 305 Q 241.9 305.8 243 302.5 Q 240 301.3 241 297 L 235.5 296 L 226.5 298 L 225 297.5 L 225 301 L 223 301 L 223 305 L 221.5 305 L 216 306 L 217 299 L 219 299 L 219 294 L 220.5 294 L 220.5 292 Q 222.8 292.8 222 290.5 L 221.5 289 L 223 289 L 223 283.5 L 225 283 L 225 281.5 L 225 279.5 Q 224.3 276.9 227 278 L 227 274.5 L 230 273 L 230 271 Z M 233 280 L 229 283 L 231 283 L 231 284 L 229 284 L 229 289 L 227 290 L 229 290 L 227 294 L 232 293 L 230 292 L 232 291 Q 234 292 232 294 L 234 294 L 237 290 Q 238 284 235 282 L 233 280 Z M 239 287 Q 236 291 240 290 L 239 287 Z " /><path fill="rgb(28,132,230)" stroke="rgb(28,132,230)" stroke-width="1" opacity="0.996078431372549" d="M 261.5 271 Q 268 269.5 269.5 273 L 272.5 271 L 278 273 Q 277 276 280 275 L 280.5 273 L 282.5 276 L 285 277.5 L 285 279.5 L 284 281.5 Q 287.5 283 285 284.5 Q 285.1 290.1 281.5 292 L 274.5 295 L 270.5 295 L 267.5 294 L 264 299.5 L 265 306 L 260.5 305 L 258.5 305 L 257 304.5 L 257 273.5 L 261.5 271 Z M 269 274 L 267 276 L 269 276 L 269 274 Z M 268 277 L 265 278 L 264 281 L 266 289 Q 275 291 278 286 L 275 277 L 272 278 L 268 277 Z " /><path fill="rgb(28,132,230)" stroke="rgb(28,132,230)" stroke-width="1" opacity="0.996078431372549" d="M 293 271 L 297.5 272 L 299 271.5 L 299 303.5 L 300 304.5 L 298.5 306 L 295.5 305 L 293.5 306 Q 290.8 304.8 293 303.5 L 293 271 Z " /><path fill="rgb(28,132,230)" stroke="rgb(28,132,230)" stroke-width="1" opacity="0.996078431372549" d="M 309.5 271 L 312.5 272 L 326.5 271 L 328.5 271 Q 335.5 269.5 337 273.5 L 336 275.5 L 336.5 277 L 331.5 278 L 327.5 277 L 324 280.5 L 325 281.5 L 326 283.5 L 323 284 L 323.5 286 L 325 285.5 L 326 300.5 L 325 305 L 319.5 306 Q 316.8 304.8 319 303.5 L 318 289.5 L 319 286.5 L 318 282.5 L 319 279.5 L 313.5 277 L 311.5 278 L 307 276.5 L 307 274.5 L 307.5 272 L 308.5 274 L 309.5 271 Z M 318 273 Q 316 276 319 275 L 318 273 Z M 328 275 L 328 276 L 330 276 L 328 275 Z " /><path fill="rgb(28,132,230)" stroke="rgb(28,132,230)" stroke-width="1" opacity="0.996078431372549" d="M 351.5 271 L 353.5 272 L 356.5 271 L 361 276.5 L 360 278.5 L 362 278.5 L 361 281.5 L 363 281.5 L 362 283.5 L 369 296.5 L 369 298.5 L 372 306 L 364.5 306 L 364 304.5 L 359.5 297 Q 355.1 298.5 356 295.5 L 353.5 297 L 350 296.5 L 352 295.5 L 350 295 L 349.5 293 L 348 297 Q 345.3 295.9 346 298.5 L 344 304 Q 341 303 342 306 L 338 306 L 337 301 L 339 300.5 L 339 298.5 Q 337.8 294.8 341.5 296 L 340 293.5 Q 344.1 291.2 343 285 Q 347.1 286.7 346 282.5 L 345 280 L 347 279.5 L 347 277.5 Q 346.3 275.3 348.5 276 L 348 274.5 L 349.5 272 L 351.5 271 Z M 352 280 L 349 290 Q 350 292 355 291 L 357 291 L 356 293 L 357 294 Q 359 293 358 287 L 358 285 L 356 282 L 356 280 L 352 280 Z M 343 298 L 342 301 L 344 301 L 345 299 L 343 298 Z " /><path fill="rgb(28,132,230)" stroke="rgb(28,132,230)" stroke-width="1" opacity="0.996078431372549" d="M 382.5 271 L 386 273.5 L 386 289.5 L 384 291.5 L 386 295.5 L 385 297.5 L 387 301 L 389 301.5 L 388.5 303 Q 391.1 303.8 390 300.5 Q 391.3 297.8 392.5 300 L 396.5 301 L 399.5 300 L 401.5 300 Q 404.5 299.1 403 303.5 L 402 306 L 383.5 306 L 382.5 305 L 379 306 L 379 273.5 L 380.5 272 L 382.5 271 Z M 394 302 Q 393 305 396 304 Q 397 301 394 302 Z " /></svg>
